<svg width="186" height="64" viewBox="0 0 186 64" fill="none" xmlns="http://www.w3.org/2000/svg">
<g clip-path="url(#clip0_189_5047)">
<path d="M95.435 47.6595V38.0304C95.3414 38.0304 95.3414 37.9331 95.2477 37.9331L91.6888 38.4194V39.3921L93.1873 39.7811V46.5896C92.719 46.8814 92.2508 47.076 91.7825 47.2705C91.3142 47.465 90.8459 47.5623 90.5649 47.5623C89.9094 47.5623 89.5347 47.3678 89.2538 47.076C88.9728 46.6869 88.8792 46.2006 88.8792 45.4225V38.0304L88.6918 37.9331L85.1329 38.4194V39.3921C85.4139 39.4893 85.6012 39.5866 85.8822 39.5866C86.1631 39.6839 86.3505 39.6839 86.6314 39.7811V46.3951C86.6314 47.5623 86.9124 48.3404 87.3807 48.8267C87.9426 49.313 88.5982 49.5076 89.5347 49.5076C89.8157 49.5076 90.1903 49.5076 90.5649 49.4103C90.9396 49.4103 91.3142 49.313 91.6888 49.2158C92.2508 48.7295 92.719 48.2431 93.281 47.6595L93.7492 49.313L93.9366 49.4103L97.1208 48.924V47.9513C96.8399 47.8541 96.5589 47.8541 96.2779 47.7568C95.9033 47.8541 95.6224 47.7568 95.435 47.6595ZM109.015 41.0456C109.015 39.9757 108.734 39.1975 108.266 38.7112C107.798 38.2249 107.048 38.0304 106.112 38.0304C105.737 38.0304 105.456 38.0304 104.988 38.1276C104.613 38.1276 104.239 38.2249 103.864 38.3222L102.366 39.8784L101.897 38.2249L101.71 38.1276C101.242 38.2249 100.68 38.3222 100.211 38.4194C99.7432 38.5167 99.1813 38.614 98.713 38.7112V39.6839L100.211 40.0729V47.9513L98.6193 48.5349V49.5076H103.958V48.5349L102.459 48.0486V40.851C102.927 40.5592 103.396 40.3647 103.864 40.1702C104.332 39.9757 104.707 39.9757 105.175 39.9757C105.831 39.9757 106.299 40.1702 106.486 40.462C106.767 40.7538 106.861 41.3374 106.861 42.0182V47.6595L105.363 48.2431V49.2158H110.607V48.2431L109.109 47.7568L109.015 41.0456ZM113.698 33.6535C113.417 33.9453 113.23 34.3343 113.23 34.7234C113.23 35.2097 113.323 35.5015 113.604 35.8906C113.885 36.1823 114.26 36.3769 114.728 36.3769C115.196 36.3769 115.571 36.1823 115.852 35.8906C116.133 35.5988 116.32 35.2097 116.32 34.7234C116.32 34.3343 116.133 33.9453 115.852 33.6535C115.571 33.3617 115.196 33.1671 114.728 33.1671C114.353 33.2644 114.073 33.3617 113.698 33.6535ZM116.039 42.8936V38.0304L115.852 37.9331L112.293 38.5167V39.4893C112.574 39.5866 112.761 39.6839 113.042 39.6839C113.323 39.7811 113.511 39.7811 113.792 39.8784V47.6595L112.106 48.3404V49.313H117.631V48.3404L115.946 47.7568C116.039 46.2006 116.039 44.5471 116.039 42.8936ZM128.495 38.1276H125.311V39.1003L126.622 39.5866C126.622 39.6839 126.529 39.8784 126.341 40.2675C126.248 40.5592 126.06 41.0456 125.967 41.4346C125.779 41.9209 125.686 42.4073 125.498 42.8936L125.03 44.3526C124.843 44.8389 124.749 45.2279 124.656 45.5197C124.562 45.7143 124.562 45.9088 124.468 46.1033H124.375L122.314 40.3647C122.127 39.9757 122.033 39.4893 121.94 39.003C121.846 38.614 121.752 38.2249 121.752 37.7386L118.1 37.9331V38.9057L119.224 39.2948C119.598 40.2675 119.973 41.1428 120.347 42.1155C120.628 42.7963 120.909 43.4772 121.19 44.2553C121.471 45.0334 121.752 45.7143 122.033 46.3951C122.314 47.076 122.502 47.6595 122.782 48.1459C122.97 48.6322 123.157 49.0213 123.157 49.1185L124.468 48.8267L127.278 41.9209C127.559 41.2401 127.84 40.5592 128.214 39.9757C128.495 39.3921 128.87 38.9057 129.338 38.5167L129.245 37.544C129.057 38.1276 128.87 38.1276 128.495 38.1276ZM138.423 39.6839C138.048 39.1975 137.674 38.8085 137.112 38.5167C136.55 38.2249 135.801 38.0304 134.864 38.0304C133.834 38.0304 132.991 38.2249 132.335 38.5167C131.68 38.9057 131.118 39.2948 130.743 39.8784C130.369 40.462 130.088 41.0456 129.9 41.7264C129.713 42.4073 129.619 43.1854 129.713 43.8662C129.713 44.7416 129.807 45.5197 129.994 46.2978C130.181 46.9787 130.462 47.5623 130.837 48.0486C131.211 48.5349 131.773 48.924 132.429 49.2158C133.085 49.5076 133.834 49.6048 134.77 49.6048C135.52 49.6048 136.269 49.5076 137.018 49.2158C137.767 49.0213 138.329 48.6322 138.891 48.2431L138.517 47.076C137.955 47.3678 137.393 47.465 136.831 47.5623C136.269 47.6596 135.894 47.7568 135.52 47.7568C134.864 47.7568 134.396 47.6595 133.927 47.465C133.553 47.2705 133.178 47.076 132.897 46.6869C132.616 46.2978 132.429 45.9088 132.335 45.4225C132.242 44.9361 132.148 44.3526 132.148 43.6717L139.079 43.2826L139.266 42.9909C139.266 42.4073 139.172 41.8237 139.079 41.2401C138.985 40.7538 138.798 40.1702 138.423 39.6839ZM132.242 42.6018C132.242 42.31 132.242 41.9209 132.335 41.6292C132.429 41.2401 132.523 40.9483 132.71 40.6565C132.897 40.3647 133.178 40.0729 133.459 39.8784C133.74 39.6839 134.115 39.5866 134.677 39.5866C135.145 39.5866 135.426 39.6839 135.707 39.7811C135.988 39.9757 136.175 40.1702 136.269 40.3647C136.456 40.6565 136.55 40.851 136.55 41.2401C136.644 41.5319 136.643 41.8237 136.643 42.1155L132.242 42.6018ZM148.725 37.8358C148.35 37.8358 148.069 37.9331 147.695 38.0304C147.32 38.1276 147.039 38.3222 146.758 38.5167C146.477 38.7112 146.196 38.9058 145.915 39.1003C145.634 39.2948 145.447 39.5866 145.166 39.7811L144.792 38.2249L144.604 38.1276L141.42 38.614V39.5866L142.918 39.9757V47.8541L141.233 48.5349V49.5076H146.758V48.5349L145.072 48.0486V40.7538L148.538 41.0456C148.725 40.7538 148.912 40.3647 149.1 39.9757C149.193 39.5866 149.287 39.1975 149.287 38.8085C149.287 38.5167 149.193 38.3222 149.1 38.1276C149.006 37.8358 148.912 37.8358 148.725 37.8358ZM157.529 44.0608C157.248 43.769 156.873 43.5744 156.498 43.3799C156.03 43.1854 155.562 42.8936 155.187 42.6991C154.813 42.5045 154.438 42.4073 154.063 42.2127C153.782 42.1155 153.502 41.9209 153.314 41.8237C153.127 41.7264 152.94 41.5319 152.846 41.3374C152.752 41.1428 152.659 40.9483 152.752 40.7538C152.752 40.3647 152.94 39.9757 153.221 39.7811C153.502 39.5866 153.876 39.4893 154.344 39.4893C154.625 39.4893 154.906 39.4893 155.187 39.5866C155.562 39.6839 155.843 39.7811 156.218 39.9757L156.967 41.8237L157.81 41.7264V38.8085C157.248 38.5167 156.686 38.3222 156.03 38.2249C155.468 38.1276 154.906 38.0304 154.344 38.0304C153.595 38.0304 153.033 38.1276 152.471 38.3222C152.003 38.5167 151.535 38.7112 151.254 39.003C150.973 39.2948 150.692 39.5866 150.598 39.9757C150.411 40.3647 150.411 40.7538 150.411 41.1428C150.411 41.6292 150.505 42.0182 150.692 42.4073C150.879 42.6991 151.16 43.0881 151.441 43.2826C151.722 43.5744 152.097 43.769 152.565 43.9635L153.782 44.5471C154.063 44.7416 154.344 44.8389 154.625 44.9361C154.906 45.0334 155.094 45.2279 155.375 45.3252C155.562 45.5197 155.749 45.617 155.843 45.8115C155.937 46.0061 156.03 46.2978 156.03 46.5896C156.03 47.076 155.843 47.465 155.468 47.7568C155.094 47.9513 154.532 48.1459 153.876 48.1459C153.595 48.1459 153.221 48.0486 152.846 47.9513C152.471 47.8541 152.097 47.6595 151.816 47.465L150.879 45.4225C150.786 45.4225 150.598 45.5197 150.505 45.5197C150.411 45.5197 150.224 45.617 150.13 45.617L150.317 48.8267C150.692 49.1185 151.254 49.313 151.909 49.4103C152.565 49.5076 153.221 49.6048 153.876 49.6048C154.625 49.6048 155.375 49.5076 155.937 49.313C156.498 49.1185 156.967 48.924 157.341 48.6322C157.716 48.3404 157.997 47.9513 158.184 47.5623C158.372 47.1732 158.465 46.6869 158.465 46.2006C158.465 45.7143 158.372 45.3252 158.278 44.9361C157.997 44.6444 157.81 44.2553 157.529 44.0608ZM162.68 36.3769C163.148 36.3769 163.523 36.1823 163.804 35.8906C164.085 35.5988 164.272 35.2097 164.272 34.7234C164.272 34.3343 164.085 33.9453 163.804 33.6535C163.523 33.3617 163.148 33.1671 162.68 33.1671C162.305 33.1671 161.931 33.3617 161.65 33.6535C161.369 33.9453 161.181 34.3343 161.181 34.7234C161.181 35.2097 161.275 35.5015 161.556 35.8906C161.837 36.1823 162.211 36.3769 162.68 36.3769ZM163.897 42.8936V38.0304L163.71 37.9331L160.151 38.5167V39.4893C160.432 39.5866 160.619 39.6839 160.9 39.6839C161.181 39.7811 161.369 39.7811 161.65 39.8784V47.6595L159.964 48.3404V49.313H165.489V48.3404L163.804 47.7568C163.897 46.2006 163.897 44.5471 163.897 42.8936ZM173.731 47.465C173.263 47.5623 172.888 47.6595 172.607 47.7568C172.326 47.8541 172.045 47.8541 171.671 47.8541C171.109 47.8541 170.734 47.7568 170.453 47.465C170.266 47.1732 170.079 46.7842 170.079 46.2006V39.5866H173.263V38.3222H170.079V35.5015L169.985 35.4042L169.891 35.307L168.674 35.696L167.924 38.1276C167.644 38.2249 167.363 38.3222 167.082 38.4194C166.801 38.5167 166.52 38.614 166.239 38.7112V39.5866H167.737V46.2978C167.737 46.8814 167.737 47.3678 167.831 47.7568C167.924 48.1459 168.112 48.5349 168.299 48.8267C168.486 49.1185 168.767 49.313 169.142 49.4103C169.517 49.5076 169.985 49.6048 170.547 49.6048C171.671 49.6048 172.795 49.313 173.918 48.7295C173.825 48.5349 173.825 48.3404 173.731 48.1459C173.825 47.8541 173.731 47.6595 173.731 47.465ZM185.906 38.614C185.906 38.4194 185.906 38.3222 185.813 38.1276L181.879 38.2249V39.1975L183.19 39.6839C182.816 40.9483 182.347 42.1155 181.973 43.3799L180.755 47.076H180.662C180.381 46.0061 180.006 44.9361 179.631 43.8662C179.257 42.7963 178.882 41.7264 178.601 40.6565C178.414 40.1702 178.32 39.6839 178.227 39.2948C178.133 38.8085 178.039 38.4194 178.039 38.0304L174.48 38.2249V39.1975L175.604 39.5866L177.384 44.4498C177.946 46.0061 178.601 47.6595 179.163 49.2158L179.912 49.313L179.35 50.772C179.257 50.9665 179.257 51.1611 179.163 51.3556C179.069 51.5501 178.976 51.7447 178.789 51.9392C178.695 52.1337 178.508 52.3282 178.32 52.4255L177.758 52.7173L175.885 51.5501C175.604 51.6474 175.417 51.8419 175.23 52.1337C175.042 52.4255 174.949 52.7173 174.949 53.0091C174.949 53.3982 175.136 53.7872 175.511 54.079C175.885 54.3708 176.353 54.4681 176.915 54.4681C177.758 54.4681 178.508 54.1763 179.069 53.5927C179.631 53.0091 180.1 52.231 180.474 51.1611L182.254 46.7842C182.816 45.3252 183.378 43.8662 183.94 42.4073C184.221 41.7264 184.502 41.0456 184.876 40.462C185.157 39.8784 185.532 39.3921 186 39.1003C185.906 39.003 185.906 38.8085 185.906 38.614ZM113.042 23.927V15.8541L115.009 15.3678L114.915 14.0061C114.915 14.0061 114.073 14.1033 112.949 14.1033C111.918 14.1033 109.202 14.0061 109.202 14.0061L109.109 15.2705L110.888 15.8541V22.9544C110.888 23.538 110.795 24.1216 110.701 24.6079C110.607 25.0942 110.42 25.5805 110.233 25.9696C109.952 26.3586 109.671 26.6504 109.202 26.845C108.828 27.0395 108.266 27.1368 107.61 27.1368C106.955 27.1368 106.393 27.0395 105.924 26.845C105.456 26.6504 105.175 26.3586 104.894 26.0668C104.707 25.6778 104.52 25.2887 104.426 24.8997C104.332 24.4133 104.332 23.927 104.332 23.4407V15.9513L106.205 15.465L106.112 14.1033C106.112 14.1033 105.644 14.2006 103.864 14.2006C102.085 14.2006 99.3686 14.1033 99.3686 14.1033L99.2749 15.3678L101.148 15.9513V24.3161C101.148 25.386 101.335 26.1641 101.71 26.845C102.085 27.5258 102.553 28.0121 103.115 28.4012C103.677 28.7902 104.332 29.082 104.988 29.1793C105.644 29.2766 106.299 29.3738 106.861 29.3738C107.517 29.3738 108.266 29.2766 108.921 29.1793C109.577 29.082 110.233 28.7902 110.888 28.4012C111.45 28.0121 111.918 27.4285 112.293 26.7477C112.761 25.9696 113.042 25.0942 113.042 23.927ZM119.598 28.9848H123.813C124.749 28.9848 125.592 28.8875 126.248 28.5957C126.903 28.3039 127.559 28.0121 128.027 27.6231C128.495 27.234 128.964 26.7477 129.245 26.1641C129.526 25.5805 129.807 25.0942 129.994 24.5106C130.181 23.927 130.275 23.4407 130.369 22.8571C130.462 22.3708 130.462 21.8845 130.462 21.3982C130.462 20.5228 130.369 19.6474 130.088 18.6747C129.9 17.7994 129.432 17.0213 128.964 16.2431C128.402 15.5623 127.653 14.9787 126.81 14.4924C125.873 14.1033 124.749 13.8115 123.438 13.8115H116.976L116.789 15.1732L118.474 15.6595V27.234L116.601 27.8176L116.695 29.082H118.568C119.036 28.9848 119.317 28.9848 119.598 28.9848ZM121.659 16.1459H122.689C123.251 16.1459 123.813 16.2431 124.375 16.3404C124.937 16.5349 125.405 16.7295 125.779 17.1185C126.154 17.5076 126.529 18.0912 126.81 18.772C127.091 19.4529 127.184 20.3282 127.184 21.3982C127.184 22.1763 127.091 22.8571 126.997 23.538C126.903 24.2188 126.622 24.8024 126.341 25.386C126.06 25.8723 125.592 26.3586 125.124 26.6504C124.656 26.9422 124 27.1368 123.251 27.1368H122.408C122.127 27.1368 121.846 27.0395 121.659 27.0395V16.1459ZM131.492 27.7203L131.586 28.9848H137.58L137.674 27.6231L135.613 27.1368L135.52 17.7994H135.613L138.61 21.9817L143.949 29.3738L145.541 28.9848V22.4681C145.541 21.4954 145.541 20.5228 145.634 19.6474V15.9513L147.789 15.465L147.695 14.1033H141.795L141.701 15.3678L143.668 15.9513L143.855 23.927H143.761L141.233 20.3282L137.674 15.3678C137.58 15.1732 137.393 14.9787 137.299 14.7842C137.112 14.4924 137.018 14.2978 136.924 14.0061C136.55 14.0061 135.894 14.0061 135.051 14.1033H131.961L131.773 15.3678L133.927 15.9513L133.647 27.1368L131.492 27.7203ZM85.0393 27.7203L85.1329 29.082C85.1329 29.082 87.287 28.9848 88.5045 28.9848C89.7221 28.9848 91.9698 29.082 91.9698 29.082L92.0634 27.7203L90.003 27.234V22.8571C90.284 22.9544 90.9396 23.0516 91.8761 23.0516L96.1843 29.8602L98.713 29.2766L98.994 28.3039L94.5921 22.4681C96.1843 21.7872 97.7764 20.5228 97.3082 17.4103C96.7462 13.7143 92.9063 14.0061 91.8761 14.0061C90.7523 14.0061 88.0363 14.4924 85.6012 13.9088L85.2266 15.3678C85.2266 15.3678 85.8822 15.6595 86.9124 15.9513V27.234L85.0393 27.7203ZM94.0302 18.4802C94.0302 19.9392 93.1873 21.3981 90.003 20.8146V16.1459H90.3776C93.281 15.8541 94.0302 17.0213 94.0302 18.4802Z" fill="white"/>
<path d="M37.9305 53.3982C43.5499 52.8146 48.3263 47.6596 50.3867 40.5593C50.4804 40.2675 50.2931 40.0729 50.1057 39.9757H50.0121C46.1722 39.3921 42.0514 39.003 37.8369 39.003C37.5559 39.003 37.3686 39.1976 37.3686 39.4894V52.9119C37.3686 53.2036 37.6496 53.3982 37.9305 53.3982ZM43.1752 12.8389C47.0151 15.2705 50.0121 20.0365 51.5106 25.7751C51.6042 25.9696 51.7915 26.0669 51.9789 26.0669C57.5045 24.997 62.3746 23.2462 66.2145 21.1064C66.4018 21.0091 66.4955 20.7173 66.4018 20.5228L66.3082 20.4255C65.0906 19.4529 63.8731 18.6748 62.5619 17.8967C60.5952 16.7295 58.5348 15.7568 56.1934 14.9787V10.31C56.1934 8.46201 57.5982 7.00304 59.3777 7.00304H61.8127C62.281 7.00304 62.6556 6.61398 62.6556 6.0304V0.972644C62.6556 0.486322 62.281 0 61.8127 0H44.7674C44.2991 0 43.9245 0.389058 43.9245 0.972644V6.0304C43.9245 6.51672 44.2991 7.00304 44.7674 7.00304H47.3897C49.0755 7.00304 50.574 8.46201 50.574 10.31V13.228C48.2326 12.6444 45.7976 12.2553 43.4562 12.0608C42.9879 12.0608 42.8006 12.6444 43.1752 12.8389ZM54.3202 10.31V14.3951C54.1329 14.2979 53.9456 14.2979 53.7583 14.2006V9.72644C53.9456 7.97568 55.0695 6.51672 56.568 6.0304C55.1632 7.00304 54.3202 8.55927 54.3202 10.31ZM60.8761 1.94529V4.96049H57.8792C55.8187 4.96049 54.0393 6.32219 53.3837 8.17021C52.6344 6.22492 50.9486 4.96049 48.8882 4.96049H45.7039V1.94529H60.8761ZM52.2598 12.0608V10.31C52.2598 8.46201 51.3233 6.80851 49.9184 5.83587C51.6979 6.32219 53.0091 7.97568 53.1027 10.0182V13.9088C52.8218 13.8116 52.6345 13.7143 52.3535 13.7143V12.0608H52.2598Z" fill="white"/>
<path d="M37.6496 27.0395C42.0514 27.0395 46.3595 26.6505 50.3867 25.8723C48.5136 17.7994 43.3625 11.9635 37.3686 11.5745V26.6504C37.3686 26.9422 37.4622 27.0395 37.6496 27.0395Z" fill="white"/>
<path d="M65.9335 45.1307C62.0937 42.9908 57.1299 41.3373 51.6042 40.3647C51.4169 40.3647 51.3233 40.462 51.2296 40.5592C49.7311 46.2978 46.5468 50.772 42.5196 53.1063C42.2387 53.3009 42.3323 53.6899 42.7069 53.6899C44.6737 53.4954 46.6405 53.2036 48.6072 52.8145C46.8278 55.4407 43.8308 57.0942 40.6465 57.0942H40.0846C36.713 57.0942 33.6224 55.3434 31.8429 52.4255C33.0604 53.0091 34.3716 53.4954 35.6828 53.5927C35.9637 53.5927 36.1511 53.3981 36.1511 53.1063V39.4893C36.1511 39.1975 35.9637 39.003 35.6828 39.003C33.9033 39.003 32.1239 39.1003 30.3444 39.1975V38.1276C32.1239 38.0303 33.9033 37.9331 35.6828 37.9331C35.9637 37.9331 36.1511 37.7386 36.1511 37.4468V28.693C36.1511 28.4012 35.9637 28.2066 35.6828 28.2066C33.9033 28.2066 32.1239 28.1094 30.3444 28.0121V26.9422C32.1239 27.0395 33.9033 27.1367 35.7764 27.1367C35.9637 27.1367 36.1511 26.9422 36.1511 26.7477V12.0607C34.0906 12.158 32.1239 12.9361 30.3444 14.2006V12.9361C30.6254 12.7416 30.9063 12.5471 31.1873 12.4498C31.3746 12.3525 31.281 11.9635 31.0937 12.0607C30.8127 12.0607 30.6254 12.158 30.3444 12.158V10.31C30.3444 8.46196 31.7492 7.00299 33.5287 7.00299H36.0574C36.5257 7.00299 36.994 6.61394 36.994 6.12761V1.16713C36.994 0.680806 36.6193 0.291748 36.0574 0.291748H10.3958C9.92749 0.291748 9.45921 0.680806 9.45921 1.16713V6.12761C9.45921 6.61394 9.83384 7.00299 10.3958 7.00299H12.9245C14.7039 7.00299 16.1088 8.46196 16.1088 10.31V11.5744V15.2705C14.3293 15.9513 12.6435 16.7294 11.0514 17.7021C9.74018 18.4802 8.52266 19.2583 7.39879 20.1337C7.11782 20.3282 7.11782 20.8145 7.49245 20.9118C9.92749 22.2735 12.9245 23.4407 16.2024 24.4133V25.4832C12.1752 24.4133 8.70997 22.9544 5.9003 21.3009C2.06042 24.7051 0 28.693 0 32.7781C0 36.8632 2.06042 40.9483 5.99396 44.3525C6.18127 44.4498 6.36858 44.5471 6.55589 44.4498C9.17825 42.8936 12.4562 41.6291 16.1088 40.5592V41.6291C13.0181 42.5045 10.2085 43.6717 7.86707 44.9361C7.67976 45.0334 7.5861 45.3252 7.67976 45.617C7.67976 45.7142 7.77341 45.7142 7.86707 45.8115C8.89728 46.5896 10.0211 47.2705 11.145 47.8541C13.1118 48.924 15.1722 49.8966 17.4199 50.6747H17.7009C20.7915 58.4559 28.1903 64 36.9003 64H37.3686C45.3293 64 52.4471 58.8449 55.0695 51.161V51.0638C57.7855 50.1884 60.3142 49.1185 62.5619 47.7568C63.7795 47.0759 64.9033 46.2978 66.0272 45.5197C66.1208 45.4224 66.2145 45.2279 66.1208 45.1307C66.0584 45.1307 65.996 45.1307 65.9335 45.1307ZM28.6586 10.31V47.0759C28.6586 53.5927 33.8097 58.8449 40.1782 58.8449H40.7402C45.0483 58.8449 48.9819 56.4133 50.9486 52.4255C50.9486 52.4255 50.9486 52.3282 51.0423 52.3282C51.2296 52.3282 51.3233 52.231 51.5106 52.231C49.0755 57.386 44.1118 60.693 38.3988 60.693H38.1178C30.1571 60.693 23.6012 53.9817 23.6012 45.8115V11.4772C23.6949 8.3647 26.2236 5.83582 29.2205 5.83582H31.281C29.6888 6.61394 28.6586 8.3647 28.6586 10.31ZM35.3082 2.04251V5.0577H29.2205C26.5045 5.0577 24.0695 6.80846 23.2266 9.4346C22.29 6.80846 19.9486 5.0577 17.2326 5.0577H11.3323V2.04251H35.3082ZM37.2749 62.2492H36.8066C26.4109 62.2492 17.8882 53.5927 17.8882 42.8936V11.9635V10.31C17.8882 8.3647 16.7643 6.61394 15.2659 5.83582H17.2326C20.3233 5.83582 22.852 8.3647 22.852 11.4772V45.8115C22.852 54.468 29.6888 61.4711 38.0242 61.4711H38.3988C44.4864 61.4711 49.9184 57.775 52.3535 52.0364C52.5408 52.0364 52.7281 51.9392 52.9154 51.9392C50.1994 58.0668 44.0181 62.2492 37.2749 62.2492Z" fill="white"/>
<path d="M67.6193 21.4954C67.432 21.3009 67.0574 21.3009 66.8701 21.3981C63.0302 23.7325 57.9728 25.4832 52.2598 26.6504C51.8852 26.7477 51.6979 27.0395 51.6979 27.4285C51.9789 29.082 52.1662 30.8328 52.1662 32.6808C52.1662 34.7233 51.9789 36.5714 51.6042 38.4194C51.5106 38.8085 51.7916 39.1975 52.1662 39.1975C57.7855 40.2674 62.7493 42.0182 66.4955 44.2553C66.7764 44.3525 67.0574 44.3525 67.2447 44.158C70.9909 40.7537 73.0514 36.7659 73.0514 32.5835C73.0514 28.5957 71.1783 24.8024 67.6193 21.4954ZM37.8369 37.7385C42.145 37.7385 46.2659 38.1276 50.1994 38.8085C50.4804 38.8085 50.6677 38.7112 50.7613 38.4194C51.136 36.6686 51.3233 34.7233 51.3233 32.7781C51.3233 31.0273 51.136 29.2765 50.855 27.623C50.855 27.3312 50.574 27.234 50.2931 27.234C46.3595 27.9148 42.145 28.2066 37.8369 28.3039C37.5559 28.3039 37.3686 28.4984 37.3686 28.7902V37.3495C37.3686 37.544 37.5559 37.7385 37.8369 37.7385Z" fill="white"/>
</g>
<defs>
<clipPath id="clip0_189_5047">
<rect width="186" height="64" fill="white"/>
</clipPath>
</defs>
</svg>
